<mxfile host="app.diagrams.net" modified="2020-10-27T18:31:04.201Z" agent="5.0 (Windows NT 10.0; Win64; x64) AppleWebKit/537.36 (KHTML, like Gecko) Chrome/86.0.4240.75 Safari/537.36" etag="j2fDl1m43vpV1WMk3GJ3" version="13.8.5" type="github">
  <diagram name="Page-1" id="b5b7bab2-c9e2-2cf4-8b2a-24fd1a2a6d21">
    <mxGraphModel dx="1303" dy="728" grid="1" gridSize="10" guides="1" tooltips="1" connect="1" arrows="1" fold="1" page="1" pageScale="1" pageWidth="827" pageHeight="1169" background="#ffffff" math="0" shadow="0">
      <root>
        <mxCell id="0" />
        <mxCell id="1" parent="0" />
        <mxCell id="6e0c8c40b5770093-72" value="" style="shape=folder;fontStyle=1;spacingTop=10;tabWidth=194;tabHeight=22;tabPosition=left;html=1;rounded=0;shadow=0;comic=0;labelBackgroundColor=none;strokeWidth=1;fillColor=none;fontFamily=Verdana;fontSize=10;align=center;" parent="1" vertex="1">
          <mxGeometry x="326.5" y="109" width="1001" height="475.5" as="geometry" />
        </mxCell>
        <mxCell id="SDTG_R8VkgxWELLOiTUD-3" value="&lt;font style=&quot;font-size: 20px&quot;&gt;UI&lt;/font&gt;" style="text;html=1;strokeColor=none;fillColor=none;align=center;verticalAlign=middle;whiteSpace=wrap;rounded=0;" vertex="1" parent="1">
          <mxGeometry x="807" y="154.5" width="40" height="20" as="geometry" />
        </mxCell>
        <mxCell id="SDTG_R8VkgxWELLOiTUD-4" value="&lt;font style=&quot;font-size: 20px&quot;&gt;UI Manager&lt;/font&gt;" style="rounded=0;whiteSpace=wrap;html=1;" vertex="1" parent="1">
          <mxGeometry x="770" y="210" width="120" height="60" as="geometry" />
        </mxCell>
        <mxCell id="SDTG_R8VkgxWELLOiTUD-5" value="&lt;font style=&quot;font-size: 21px&quot;&gt;PrintWelcomeScreen&lt;/font&gt;" style="rounded=0;whiteSpace=wrap;html=1;" vertex="1" parent="1">
          <mxGeometry x="460" y="317" width="210" height="53" as="geometry" />
        </mxCell>
        <mxCell id="SDTG_R8VkgxWELLOiTUD-6" value="" style="endArrow=classic;html=1;entryX=0.75;entryY=0;entryDx=0;entryDy=0;exitX=0;exitY=0.5;exitDx=0;exitDy=0;" edge="1" parent="1" source="SDTG_R8VkgxWELLOiTUD-4" target="SDTG_R8VkgxWELLOiTUD-5">
          <mxGeometry width="50" height="50" relative="1" as="geometry">
            <mxPoint x="710" y="320" as="sourcePoint" />
            <mxPoint x="760" y="270" as="targetPoint" />
            <Array as="points">
              <mxPoint x="618" y="240" />
            </Array>
          </mxGeometry>
        </mxCell>
        <mxCell id="SDTG_R8VkgxWELLOiTUD-7" value="&lt;font style=&quot;font-size: 21px&quot;&gt;ShowToUser&lt;/font&gt;" style="rounded=0;whiteSpace=wrap;html=1;" vertex="1" parent="1">
          <mxGeometry x="770" y="317" width="120" height="60" as="geometry" />
        </mxCell>
        <mxCell id="SDTG_R8VkgxWELLOiTUD-8" value="" style="endArrow=classic;html=1;entryX=0.5;entryY=0;entryDx=0;entryDy=0;exitX=0.5;exitY=1;exitDx=0;exitDy=0;" edge="1" parent="1" source="SDTG_R8VkgxWELLOiTUD-4" target="SDTG_R8VkgxWELLOiTUD-7">
          <mxGeometry width="50" height="50" relative="1" as="geometry">
            <mxPoint x="710" y="310" as="sourcePoint" />
            <mxPoint x="760" y="260" as="targetPoint" />
          </mxGeometry>
        </mxCell>
        <mxCell id="SDTG_R8VkgxWELLOiTUD-9" value="&lt;font style=&quot;font-size: 20px&quot;&gt;ShowToUserLn&lt;/font&gt;" style="rounded=0;whiteSpace=wrap;html=1;" vertex="1" parent="1">
          <mxGeometry x="970" y="316.75" width="140" height="53.25" as="geometry" />
        </mxCell>
        <mxCell id="SDTG_R8VkgxWELLOiTUD-10" value="&lt;font style=&quot;font-size: 21px&quot;&gt;GetUserCommand&lt;/font&gt;" style="rounded=0;whiteSpace=wrap;html=1;" vertex="1" parent="1">
          <mxGeometry x="630" y="410" width="180" height="50" as="geometry" />
        </mxCell>
        <mxCell id="SDTG_R8VkgxWELLOiTUD-11" value="&lt;font style=&quot;font-size: 19px&quot;&gt;ShowError&lt;/font&gt;" style="rounded=0;whiteSpace=wrap;html=1;" vertex="1" parent="1">
          <mxGeometry x="900" y="410" width="120" height="60" as="geometry" />
        </mxCell>
        <mxCell id="SDTG_R8VkgxWELLOiTUD-12" value="" style="endArrow=classic;html=1;entryX=0.5;entryY=0;entryDx=0;entryDy=0;exitX=0;exitY=0.75;exitDx=0;exitDy=0;" edge="1" parent="1" source="SDTG_R8VkgxWELLOiTUD-4" target="SDTG_R8VkgxWELLOiTUD-10">
          <mxGeometry width="50" height="50" relative="1" as="geometry">
            <mxPoint x="710" y="300" as="sourcePoint" />
            <mxPoint x="760" y="250" as="targetPoint" />
            <Array as="points">
              <mxPoint x="720" y="255" />
            </Array>
          </mxGeometry>
        </mxCell>
        <mxCell id="SDTG_R8VkgxWELLOiTUD-13" value="" style="endArrow=classic;html=1;entryX=0.5;entryY=0;entryDx=0;entryDy=0;exitX=1;exitY=0.75;exitDx=0;exitDy=0;" edge="1" parent="1" source="SDTG_R8VkgxWELLOiTUD-4" target="SDTG_R8VkgxWELLOiTUD-11">
          <mxGeometry width="50" height="50" relative="1" as="geometry">
            <mxPoint x="710" y="300" as="sourcePoint" />
            <mxPoint x="760" y="250" as="targetPoint" />
            <Array as="points">
              <mxPoint x="960" y="255" />
            </Array>
          </mxGeometry>
        </mxCell>
        <mxCell id="SDTG_R8VkgxWELLOiTUD-14" value="" style="endArrow=classic;html=1;entryX=0.5;entryY=0;entryDx=0;entryDy=0;exitX=1;exitY=0.5;exitDx=0;exitDy=0;" edge="1" parent="1" source="SDTG_R8VkgxWELLOiTUD-4" target="SDTG_R8VkgxWELLOiTUD-9">
          <mxGeometry width="50" height="50" relative="1" as="geometry">
            <mxPoint x="710" y="300" as="sourcePoint" />
            <mxPoint x="760" y="250" as="targetPoint" />
            <Array as="points">
              <mxPoint x="1040" y="240" />
            </Array>
          </mxGeometry>
        </mxCell>
      </root>
    </mxGraphModel>
  </diagram>
</mxfile>
